<svg version="1.1" id="Layer_1" xmlns="http://www.w3.org/2000/svg" xmlns:xlink="http://www.w3.org/1999/xlink" x="0px" y="0px"
	 width="100%" viewBox="0 0 1024 528" enable-background="new 0 0 1024 528" xml:space="preserve">
<path fill="#000000" opacity="1.000000" stroke="none" 
	d="
M296.689758,300.000519 
	C296.437225,274.522217 297.157532,249.537506 296.076019,224.562927 
	C295.797699,218.135376 297.237885,216.868073 303.497711,216.834290 
	C307.328949,216.813614 311.160370,216.805298 314.991638,216.820511 
	C321.651703,216.846954 322.430695,217.573608 322.981659,224.104324 
	C323.076202,225.224625 323.247986,226.338409 323.506409,228.459244 
	C328.580170,223.601059 333.631226,220.082642 339.547943,217.749557 
	C360.435577,209.513077 387.365784,217.586334 399.403656,238.160706 
	C412.140717,259.930054 408.296967,290.992157 393.652618,306.804230 
	C386.952972,314.038147 378.968964,318.945312 369.268982,321.464478 
	C352.359894,325.855927 337.890045,321.535248 324.679199,309.974030 
	C323.392792,312.676056 323.453308,315.273560 323.449097,317.838593 
	C323.423676,333.319946 323.276123,348.803314 323.495056,364.281433 
	C323.561096,368.949432 322.093781,371.084167 317.306610,370.914703 
	C312.315552,370.738068 307.311676,370.765839 302.317413,370.879639 
	C297.420471,370.991211 296.018127,368.349701 296.100433,363.946869 
	C296.377350,349.129486 296.552490,334.309998 296.709045,319.490692 
	C296.775909,313.161377 296.700836,306.830627 296.689758,300.000519 
M379.618164,263.134216 
	C378.615265,259.793182 377.880920,256.342072 376.563995,253.129761 
	C370.077332,237.307083 351.791504,233.454041 339.334656,239.958801 
	C321.855469,249.086166 318.395813,272.428345 328.650299,287.621246 
	C334.799408,296.731689 343.659363,300.498322 354.459076,299.662354 
	C365.779236,298.786133 372.962769,292.547333 377.060822,282.103149 
	C379.375488,276.204102 380.250580,270.246643 379.618164,263.134216 
z"/>
<path fill="#000000" opacity="1.000000" stroke="none" 
	d="
M484.000000,193.893219 
	C473.833679,193.933426 464.165558,194.100876 454.501923,193.960083 
	C450.389557,193.900177 448.914886,195.478943 448.973114,199.553299 
	C449.051453,205.040314 448.530640,210.533142 448.392761,216.026642 
	C448.216187,223.062912 448.274689,223.140106 455.141418,222.728104 
	C464.989136,222.137238 474.719727,222.072723 484.295593,225.232590 
	C500.382599,230.541077 511.808441,240.918625 515.409973,257.413788 
	C520.464172,280.562531 513.409729,306.446259 487.670807,317.914978 
	C467.552032,326.879425 447.734131,326.099335 428.723663,314.386414 
	C424.109772,311.543671 420.616699,307.507660 417.360779,303.269470 
	C415.233948,300.500916 415.145233,297.989502 418.079315,295.443604 
	C422.217285,291.853180 426.154419,288.020905 430.042511,284.156311 
	C432.892059,281.323975 434.921967,281.324707 436.863922,285.141815 
	C440.780609,292.840485 447.081726,297.138916 455.450226,299.733948 
	C467.647736,303.516327 486.716248,294.962250 488.288940,279.055023 
	C489.682526,264.959625 486.436676,254.117172 475.919617,248.570923 
	C468.242157,244.522171 459.684113,243.301392 451.134155,244.539261 
	C442.947876,245.724503 434.741241,247.148392 426.995697,250.414642 
	C421.837219,252.589935 420.685852,251.844650 420.967804,246.171768 
	C421.943237,226.544601 423.236572,206.932098 422.826721,187.260941 
	C422.746918,183.429855 422.800964,179.593552 422.891296,175.761948 
	C423.022797,170.184418 424.143616,168.981277 429.702209,168.953552 
	C441.701660,168.893661 453.701813,168.979919 465.701660,168.985428 
	C478.534851,168.991302 491.369110,169.064911 504.200653,168.915237 
	C508.650635,168.863327 510.649872,170.488037 510.368347,175.087494 
	C510.114227,179.238998 510.089661,183.430740 510.349426,187.580597 
	C510.645905,192.317902 508.790680,194.288437 503.996368,194.094376 
	C497.505554,193.831665 490.999512,193.944183 484.000000,193.893219 
z"/>
<path fill="#000000" opacity="1.000000" stroke="none" 
	d="
M687.568542,235.336700 
	C679.000183,237.700729 676.186096,240.467926 676.654175,245.764816 
	C676.959106,249.216415 678.627136,251.437958 682.019470,252.823624 
	C690.504517,256.289520 699.624023,257.538971 708.186096,260.664703 
	C712.416443,262.209106 716.458313,264.200867 720.065735,266.914551 
	C736.667908,279.403748 733.460510,307.943939 714.188110,317.101807 
	C702.427063,322.690460 690.233398,324.626251 676.971985,321.812744 
	C666.406189,319.571136 656.967834,316.001068 648.651245,309.204285 
	C645.628662,306.734070 645.305969,304.658112 648.430664,301.987885 
	C651.968689,298.964386 655.356567,295.743927 658.606567,292.410980 
	C661.475342,289.468933 663.721924,289.815216 666.579163,292.597839 
	C673.969727,299.795471 682.981079,302.403137 693.152344,300.966583 
	C699.527588,300.066193 703.389893,296.557251 703.743408,291.534729 
	C704.137146,285.938324 701.464661,283.591064 694.731567,280.890015 
	C685.905334,277.349213 676.454224,276.140564 667.640625,272.525818 
	C654.947571,267.319946 648.237854,252.412735 652.079285,239.319122 
	C655.671692,227.074432 663.752380,220.445862 674.741821,217.121170 
	C690.946350,212.218796 706.995178,213.642822 721.854431,222.309387 
	C732.084412,228.275955 732.158875,230.593674 723.163696,237.791748 
	C720.194153,240.167953 717.951904,244.109222 714.199890,244.676483 
	C710.361328,245.256821 708.399963,240.756775 705.231445,239.053787 
	C699.830139,236.150726 694.176392,234.561356 687.568542,235.336700 
z"/>
<path fill="#000000" opacity="1.000000" stroke="none" 
	d="
M628.270447,229.003510 
	C628.276550,260.480682 628.288940,291.458832 628.283508,322.436981 
	C628.282104,330.262390 627.973206,338.037964 625.794556,345.657654 
	C621.440796,360.884216 611.515991,369.115753 595.783081,370.288269 
	C594.455261,370.387207 593.121277,370.410492 591.789673,370.451874 
	C578.381348,370.868683 577.356079,369.750214 579.634888,356.387512 
	C580.151978,353.355713 578.426270,349.546173 581.245911,347.421844 
	C583.650146,345.610443 587.086609,347.077576 590.037170,346.728333 
	C595.041077,346.136078 598.193298,343.224487 599.616699,338.505463 
	C600.826050,334.496094 601.082886,330.354279 601.075623,326.159149 
	C601.014832,291.017395 601.016357,255.875534 601.012878,220.733688 
	C601.012085,212.738998 601.036926,212.729080 609.054932,212.717865 
	C614.051331,212.710876 619.047791,212.763977 624.044006,212.742462 
	C626.950256,212.729950 628.306519,214.087799 628.263000,217.012955 
	C628.205994,220.842575 628.262451,224.673904 628.270447,229.003510 
z"/>
<path fill="#000000" opacity="1.000000" stroke="none" 
	d="
M573.293091,294.136047 
	C579.109253,291.982117 579.410767,292.421997 581.641907,297.669220 
	C583.711060,302.535339 581.013000,303.955261 577.372498,305.155121 
	C576.590088,305.412994 575.716309,305.387604 574.925842,305.628174 
	C569.902771,307.156921 569.375122,308.749146 572.418762,312.946991 
	C573.100159,313.886810 573.700317,314.886108 574.326660,315.865204 
	C577.120239,320.231903 574.222290,326.236786 569.119873,326.445374 
	C566.515259,326.551849 565.661072,324.043915 564.378174,322.461304 
	C558.693115,315.448212 558.544250,315.245087 553.264282,322.392273 
	C550.437256,326.219116 548.316101,326.654205 544.461426,323.642120 
	C540.428528,320.490723 541.423218,318.140839 544.125793,315.040100 
	C545.831604,313.082886 547.090576,310.736206 548.535095,308.586365 
	C545.891357,305.562653 542.348816,305.470612 539.289001,304.438049 
	C534.364563,302.776276 535.371704,299.465210 536.493958,295.973602 
	C537.709656,292.191437 540.079285,291.888550 543.502930,293.222656 
	C552.434570,296.703064 552.610229,296.608459 552.624329,287.006439 
	C552.630859,282.561554 554.277649,280.696747 558.826782,280.727600 
	C563.131165,280.756866 565.577820,282.089294 565.280273,286.742157 
	C565.237976,287.404663 565.286682,288.074280 565.313477,288.739777 
	C565.597961,295.809570 566.004944,296.104858 573.293091,294.136047 
z"/>
</svg>